Format : AVI
Format/Info : Audio Video Interleave
File size : 1.18 GiB
Duration : 1h 45mn
Overall bit rate : 1 609 Kbps
Writing library : VirtualDub build 32842/release

Video
ID : 0
Format : MPEG-4 Visual
Format profile : Advanced Simple@L5
Format settings, BVOP : 2
Format settings, QPel : No
Format settings, GMC : No warppoints
Format settings, Matrix : Default (H.263)
Muxing mode : Packed bitstream
Codec ID : XVID
Codec ID/Hint : XviD
Duration : 1h 45mn
Bit rate : 1 408 Kbps
Width : 672 pixels
Height : 282 pixels
Display aspect ratio : 2.40:1
Frame rate : 25.000 fps
Color space : YUV
Chroma subsampling : 4:2:0
Bit depth : 8 bits
Scan type : Progressive
Compression mode : Lossy
Bits/(Pixel*Frame) : 0.297
Stream size : 1.03 GiB (87%)
Writing library : XviD 64

Audio
ID : 1
Format : MPEG Audio
Format version : Version 1
Format profile : Layer 3
Mode : Joint stereo
Mode extension : MS Stereo
Codec ID : 55
Codec ID/Hint : MP3
Duration : 1h 45mn
Bit rate mode : Constant
Bit rate : 192 Kbps
Channel(s) : 2 channels
Sampling rate : 48.0 KHz
Compression mode : Lossy
Stream size : 144 MiB (12%)
Alignment : Split accross interleaves
Interleave, duration : 40 ms (1.00 video frame)
Interleave, preload duration : 500 ms
Writing library : LAME3.98r
Encoding settings : -m j -V 4 -q 2 -lowpass 18.6 -b 192







 
http://www.imdb.com/title/tt1509767/






Plot:
The hot-headed young D'Artagnan along with three former
legendary but now down on their luck Musketeers must unite
and defeat a beautiful double agent and her villainous
employer from seizing the French throne
and engulfing Europe in war.
 
http://img528.imageshack.us/img528/4296/vlcsnap2011101115h12m47.png
 
http://img8.imageshack.us/img8/9232/vlcsnap2011101115h17m26.png
 
http://img195.imageshack.us/img195/150/vlcsnap2011101115h13m18.png
 
http://img710.imageshack.us/img710/2408/vlcsnap2011101115h41m07.png



Source Used

FLOPPYDISK ................Thanks

iLLUMiNATi .........................Thanks matey

Basically just dropped the saturation .......changed the colours abit ,sharpened it and upped contrast

Sample included

Enjoy





Greetz to IMAGiNE,Flawl3ss,BDK,Ez,Rx,CreWsaDe,TaRiQ786,ETRG,BHRG,iLLUMiNATi

